<?xml version="1.0" encoding="UTF-8" standalone="no"?>
<svg
   xmlns:dc="http://purl.org/dc/elements/1.1/"
   xmlns:cc="http://creativecommons.org/ns#"
   xmlns:rdf="http://www.w3.org/1999/02/22-rdf-syntax-ns#"
   xmlns:svg="http://www.w3.org/2000/svg"
   xmlns="http://www.w3.org/2000/svg"
   xmlns:sodipodi="http://sodipodi.sourceforge.net/DTD/sodipodi-0.dtd"
   xmlns:inkscape="http://www.inkscape.org/namespaces/inkscape"
   width="1199.999"
   height="361.85281"
   viewBox="0 0 317.49975 95.740225"
   version="1.1"
   id="svg6"
   inkscape:version="1.0 (4035a4fb49, 2020-05-01)"
   sodipodi:docname="Logo-Light.svg">
  <metadata
     id="metadata28">
    <rdf:RDF>
      <cc:Work
         rdf:about="">
        <dc:format>image/svg+xml</dc:format>
        <dc:type
           rdf:resource="http://purl.org/dc/dcmitype/StillImage" />
        <dc:title></dc:title>
      </cc:Work>
    </rdf:RDF>
  </metadata>
  <defs
     id="defs2">
    <rect
       x="-480.02975"
       y="-346.2262"
       width="258.53571"
       height="324.30356"
       id="rect30" />
    <rect
       x="-194.27975"
       y="-344.71429"
       width="85.422623"
       height="83.910713"
       id="rect24" />
  </defs>
  <sodipodi:namedview
     units="px"
     id="base"
     pagecolor="#ffffff"
     bordercolor="#666666"
     borderopacity="1.0"
     inkscape:pageopacity="0.0"
     inkscape:pageshadow="2"
     inkscape:zoom="0.49497474"
     inkscape:cx="673.52657"
     inkscape:cy="172.81553"
     inkscape:document-units="mm"
     inkscape:current-layer="layer1"
     showgrid="false"
     showguides="false"
     inkscape:window-width="1291"
     inkscape:window-height="890"
     inkscape:window-x="-6"
     inkscape:window-y="-6"
     inkscape:window-maximized="1"
     fit-margin-top="0"
     fit-margin-left="0"
     fit-margin-right="0"
     fit-margin-bottom="0"
     inkscape:document-rotation="0" />
  <g
     inkscape:label="Layer 1"
     inkscape:groupmode="layer"
     id="layer1"
     transform="translate(378.1747,312.35968)">
    <g
       aria-label="MILO"
       id="text10"
       style="font-size:22.9275px;line-height:1.25;font-family:'Lexend Zetta';-inkscape-font-specification:'Lexend Zetta';fill:#e5e5e5;stroke-width:0.119414;fill-opacity:1">
      <path
         d="m -375.74438,-280.76846 6.87825,8.5061 6.87825,-8.5061 h 2.43031 v 16.04925 h -2.47617 v -6.80947 q 0,-1.49028 0.0459,-2.82008 0.0688,-1.35272 0.20634,-2.68252 l -6.32799,7.70364 h -1.51321 l -6.32799,-7.70364 q 0.13756,1.3298 0.18342,2.68252 0.0688,1.3298 0.0688,2.82008 v 6.80947 h -2.47617 v -16.04925 z"
         style="font-size:22.9275px;fill:#e5e5e5;stroke-width:0.119414;fill-opacity:1"
         id="path33" />
      <path
         d="m -340.16592,-264.71921 h -10.86764 v -2.45324 h 4.19574 v -11.14277 h -4.19574 v -2.45324 h 10.86764 v 2.45324 h -4.19573 v 11.14277 h 4.19573 z"
         style="font-size:22.9275px;fill:#e5e5e5;stroke-width:0.119414;fill-opacity:1"
         id="path35" />
      <path
         d="m -318.44176,-267.10367 v 2.38446 H -331.648 v -16.04925 h 2.47617 v 13.66479 z"
         style="font-size:22.9275px;fill:#e5e5e5;stroke-width:0.119414;fill-opacity:1"
         id="path37" />
      <path
         d="m -293.33829,-272.74383 q 0,1.74249 -0.71076,3.2557 -0.71075,1.49029 -2.01762,2.61374 -1.30686,1.12344 -3.07228,1.76541 -1.76542,0.61905 -3.89768,0.61905 -2.13225,0 -3.9206,-0.61905 -1.76542,-0.64197 -3.07228,-1.76541 -1.28394,-1.12345 -1.9947,-2.61374 -0.71075,-1.51321 -0.71075,-3.2557 0,-1.74249 0.71075,-3.23278 0.71076,-1.51322 1.9947,-2.63666 1.30686,-1.12345 3.07228,-1.74249 1.78835,-0.64197 3.9206,-0.64197 2.13226,0 3.89768,0.64197 1.76542,0.61904 3.07228,1.74249 1.30687,1.12344 2.01762,2.63666 0.71076,1.49029 0.71076,3.23278 z m -2.52203,0 q 0,-1.67371 -0.9171,-2.98058 -0.9171,-1.32979 -2.54495,-2.0864 -1.60493,-0.77954 -3.71426,-0.77954 -2.13225,0 -3.76011,0.77954 -1.60492,0.75661 -2.52202,2.0864 -0.89417,1.30687 -0.89417,2.98058 0,1.6737 0.89417,3.0035 0.9171,1.30687 2.52202,2.0864 1.62786,0.75661 3.76011,0.75661 2.10933,0 3.71426,-0.75661 1.62785,-0.77953 2.54495,-2.10933 0.9171,-1.32979 0.9171,-2.98057 z"
         style="font-size:22.9275px;fill:#e5e5e5;stroke-width:0.119414;fill-opacity:1"
         id="path39" />
    </g>
    <text
       xml:space="preserve"
       style="font-size:9.55311px;line-height:1.25;font-family:Scheherazade;-inkscape-font-specification:Scheherazade;stroke-width:0.238828"
       x="-250.39279"
       y="-246.03343"
       id="text14"><tspan
         sodipodi:role="line"
         id="tspan12"
         style="stroke-width:0.238828"
         x="-250.39279"
         y="-246.03343" /></text>
    <text
       xml:space="preserve"
       style="font-size:216.107px;line-height:1.25;font-family:Scheherazade;-inkscape-font-specification:Scheherazade;stroke-width:0.281388"
       x="-453.00729"
       y="-129.76698"
       id="text18"
       transform="scale(0.85415012,1.1707544)"><tspan
         sodipodi:role="line"
         id="tspan16"
         style="font-size:216.107px;stroke-width:0.281388"
         x="-453.00729"
         y="-129.76698" /></text>
    <text
       transform="matrix(0.90265923,0,0,0.90265923,-36.811815,-30.40535)"
       xml:space="preserve"
       id="text22"
       style="font-size:10.5833px;line-height:1.25;font-family:Scheherazade;-inkscape-font-specification:Scheherazade;white-space:pre;shape-inside:url(#rect24);" />
    <text
       transform="matrix(0.90265923,0,0,0.90265923,-36.811815,-30.40535)"
       xml:space="preserve"
       id="text28"
       style="font-size:10.5833px;line-height:1.25;font-family:Scheherazade;-inkscape-font-specification:Scheherazade;white-space:pre;shape-inside:url(#rect30);" />
    <g
       aria-label="DESIGN"
       id="text36"
       style="font-size:22.9275px;line-height:1.25;font-family:Scheherazade;-inkscape-font-specification:Scheherazade;fill:#e5e5e5;stroke-width:0.119414;fill-opacity:1">
      <path
         d="m -180.79068,-256.83334 q 2.22397,0 3.89768,0.64197 1.69663,0.61904 2.82008,1.74249 1.14637,1.10052 1.71956,2.56788 0.57319,1.44443 0.57319,3.07229 0,2.20104 -1.03174,4.03524 -1.00881,1.81127 -3.0035,2.91179 -1.99469,1.07759 -4.97527,1.07759 h -8.11633 v -16.04925 z m -0.11464,13.66479 q 2.29275,0 3.71426,-0.75661 1.4215,-0.7566 2.0864,-2.04054 0.68783,-1.28394 0.68783,-2.84301 0,-1.51322 -0.68783,-2.79716 -0.6649,-1.28394 -2.0864,-2.06347 -1.42151,-0.77954 -3.71426,-0.77954 h -5.52552 v 11.28033 z"
         style="font-style:normal;font-variant:normal;font-weight:normal;font-stretch:normal;font-size:22.9275px;font-family:'Lexend Zetta';-inkscape-font-specification:'Lexend Zetta';fill:#e5e5e5;stroke-width:0.119414;fill-opacity:1"
         id="path42" />
      <path
         d="m -164.68089,-256.83334 h 13.32088 v 2.38446 h -10.84471 v 4.24159 h 9.5837 v 2.38446 h -9.5837 v 4.65428 h 10.84471 v 2.38446 h -13.32088 z"
         style="font-style:normal;font-variant:normal;font-weight:normal;font-stretch:normal;font-size:22.9275px;font-family:'Lexend Zetta';-inkscape-font-specification:'Lexend Zetta';fill:#e5e5e5;stroke-width:0.119414;fill-opacity:1"
         id="path44" />
      <path
         d="m -143.17883,-245.73643 q 1.35272,1.39858 2.86593,2.17811 1.53615,0.77954 3.62255,0.77954 1.19223,0 2.29275,-0.27513 1.10052,-0.29806 1.81127,-0.87125 0.71075,-0.59611 0.71075,-1.49028 0,-0.77954 -0.64197,-1.16931 -0.61904,-0.41269 -1.81127,-0.61904 -1.1693,-0.22927 -2.86594,-0.43562 -2.06347,-0.27513 -3.57669,-0.82539 -1.51321,-0.55026 -2.3386,-1.49029 -0.82539,-0.94003 -0.82539,-2.36153 0,-1.51322 0.94003,-2.56788 0.96295,-1.05467 2.56788,-1.60493 1.62785,-0.57318 3.62254,-0.57318 2.45324,0 4.21866,0.73368 1.78835,0.73368 2.82008,2.0864 l -1.65078,1.81127 q -0.89417,-1.07759 -2.26982,-1.74249 -1.35272,-0.6649 -3.18692,-0.6649 -1.23809,0 -2.22397,0.27513 -0.98588,0.25221 -1.55907,0.75661 -0.57319,0.50441 -0.57319,1.21516 0,0.84832 0.59612,1.35272 0.61904,0.48148 1.71956,0.75661 1.12345,0.27513 2.59081,0.45855 1.37565,0.16049 2.65959,0.41269 1.28394,0.22928 2.29275,0.68783 1.03174,0.43562 1.60492,1.21516 0.59612,0.7566 0.59612,1.97176 0,1.55907 -0.94003,2.72837 -0.9171,1.16931 -2.61373,1.81128 -1.69664,0.64197 -3.98939,0.64197 -2.4991,0 -4.49379,-0.73368 -1.99469,-0.73368 -3.53083,-2.38446 z"
         style="font-style:normal;font-variant:normal;font-weight:normal;font-stretch:normal;font-size:22.9275px;font-family:'Lexend Zetta';-inkscape-font-specification:'Lexend Zetta';fill:#e5e5e5;stroke-width:0.119414;fill-opacity:1"
         id="path46" />
      <path
         d="m -110.99901,-240.78409 h -10.86763 v -2.45324 h 4.19573 v -11.14277 h -4.19573 v -2.45324 h 10.86763 v 2.45324 h -4.19573 v 11.14277 h 4.19573 z"
         style="font-style:normal;font-variant:normal;font-weight:normal;font-stretch:normal;font-size:22.9275px;font-family:'Lexend Zetta';-inkscape-font-specification:'Lexend Zetta';fill:#e5e5e5;stroke-width:0.119414;fill-opacity:1"
         id="path48" />
      <path
         d="m -94.172731,-256.9709 q 1.74249,0 3.20985,0.38976 1.490288,0.38977 2.613735,1.00881 1.146375,0.61905 1.788345,1.3298 l -1.604925,1.81127 q -1.238085,-0.94003 -2.7513,-1.53614 -1.513215,-0.59612 -3.255705,-0.59612 -2.040547,0 -3.691327,0.75661 -1.65078,0.75661 -2.613732,2.06348 -0.96296,1.28394 -0.96296,2.93472 0,1.53614 0.57319,2.63666 0.59611,1.10052 1.604924,1.81127 1.00881,0.71075 2.269823,1.05467 1.28394,0.34391 2.65959,0.34391 1.811272,0 3.278632,-0.43562 1.46736,-0.43563 2.361533,-1.19223 0.894172,-0.77954 0.985882,-1.78835 h -6.51141 v -2.40739 h 9.171 q 0.04585,0.25221 0.06878,0.52734 0.02293,0.27513 0.02293,0.52733 0,1.23808 -0.412695,2.3386 -0.389767,1.10052 -0.985882,1.8342 -1.146375,1.42151 -3.255705,2.22397 -2.10933,0.77954 -4.929413,0.77954 -1.902982,0 -3.622545,-0.52734 -1.719562,-0.52733 -3.049354,-1.55907 -1.3298,-1.03173 -2.10933,-2.56788 -0.75661,-1.55907 -0.75661,-3.59961 0,-1.74249 0.75661,-3.20985 0.7566,-1.49029 2.10933,-2.59081 1.352719,-1.12345 3.141064,-1.74249 1.811273,-0.61904 3.897675,-0.61904 z"
         style="font-style:normal;font-variant:normal;font-weight:normal;font-stretch:normal;font-size:22.9275px;font-family:'Lexend Zetta';-inkscape-font-specification:'Lexend Zetta';fill:#e5e5e5;stroke-width:0.119414;fill-opacity:1"
         id="path50" />
      <path
         d="m -63.151113,-256.83334 h 2.47617 v 16.04925 h -2.499097 l -12.816473,-12.61012 q 0.137565,1.49028 0.27513,2.98057 0.160493,1.46736 0.160493,2.95765 v 6.6719 h -2.47617 v -16.04925 h 2.453242 l 12.816473,12.93111 q -0.160493,-1.12345 -0.252203,-2.45324 -0.06878,-1.3298 -0.114637,-2.65959 -0.02293,-1.35272 -0.02293,-2.54495 z"
         style="font-style:normal;font-variant:normal;font-weight:normal;font-stretch:normal;font-size:22.9275px;font-family:'Lexend Zetta';-inkscape-font-specification:'Lexend Zetta';fill:#e5e5e5;stroke-width:0.119414;fill-opacity:1"
         id="path52" />
    </g>
    <g
       aria-label="&amp;"
       id="text40"
       style="font-size:183.42px;line-height:1.25;font-family:Scheherazade;-inkscape-font-specification:Scheherazade;stroke-width:0.119414">
      <path
         d="m -192.04348,-235.33762 q -0.80605,3.94067 -2.59726,7.43353 -1.79121,3.4033 -4.38847,5.911 -2.59725,2.50769 -6.09011,3.94066 -3.4033,1.43297 -7.61265,1.43297 -3.58242,0 -6.89616,-1.16429 -3.31374,-1.07472 -6.3588,-2.9555 -2.9555,-1.88077 -5.64232,-4.20934 -2.68681,-2.41814 -5.01539,-4.92583 -3.31374,2.86594 -6.62748,5.37363 -3.22418,2.41814 -6.71704,4.20935 -3.49286,1.70165 -7.43352,2.68681 -3.94067,0.98517 -8.50825,0.98517 -4.56759,0 -8.95606,-1.34341 -4.2989,-1.25385 -7.70221,-3.76154 -3.4033,-2.59726 -5.55275,-6.44836 -2.05989,-3.8511 -2.05989,-8.8665 0,-5.82143 2.59725,-10.74726 2.68682,-5.01539 6.71704,-9.13518 4.11979,-4.11978 9.04562,-7.34396 5.01539,-3.31374 9.7621,-5.73188 -2.23901,-4.56758 -4.03023,-9.85166 -1.70165,-5.28407 -1.70165,-10.38902 0,-5.10495 1.79122,-9.22474 1.79121,-4.11978 4.92583,-6.98572 3.13461,-2.86594 7.43352,-4.38847 4.29891,-1.52252 9.3143,-1.52252 3.76154,0 7.07528,1.07472 3.31374,1.07473 5.82144,3.13462 2.50769,2.05989 3.94066,5.10495 1.52253,3.04506 1.52253,6.98572 0,4.74671 -2.14945,8.50826 -2.0599,3.67198 -5.37364,6.62748 -3.22418,2.86593 -7.16484,5.10495 -3.94066,2.23901 -7.52309,4.11978 4.03023,7.34397 8.4187,14.32969 4.47802,6.89616 9.58297,13.52364 1.88078,-2.32857 3.94067,-5.10495 2.14945,-2.86594 3.8511,-5.91099 1.70165,-3.13462 2.77638,-6.3588 1.16429,-3.31374 1.16429,-6.44836 0,-1.34341 -0.44781,-2.68682 -0.35824,-1.34341 -1.16428,-2.41813 -0.80605,-1.07473 -2.0599,-1.70165 -1.16428,-0.71649 -2.77637,-0.71649 v -2.50769 h 28.48025 v 2.50769 q -0.80605,0 -1.88077,0.17912 -1.07473,0.17912 -2.23902,0.44781 -1.16428,0.26868 -2.32857,0.80604 -1.07473,0.4478 -1.97033,1.16429 -1.07473,0.8956 -2.32858,2.50769 -1.25384,1.61209 -2.41813,3.49286 -1.16429,1.79122 -2.23901,3.58243 -0.98517,1.79121 -1.70165,3.04505 -2.9555,5.37364 -6.3588,10.38903 -3.31374,5.01539 -7.16485,9.85166 1.88077,2.05989 4.11979,4.2989 2.23901,2.23902 4.83627,4.11979 2.59725,1.79121 5.37363,3.04506 2.86594,1.16429 5.82144,1.16429 5.10495,0 8.15001,-2.5077 3.04505,-2.59726 4.2989,-7.43353 z m -41.82478,-60.90117 q 0,-2.23901 -0.71648,-4.2989 -0.71649,-2.14946 -2.14946,-3.67199 -1.3434,-1.52252 -3.31374,-2.41813 -1.88077,-0.98517 -4.2989,-0.98517 -2.5077,0 -4.74671,0.98517 -2.14945,0.89561 -3.76154,2.5077 -1.61209,1.61209 -2.5077,3.8511 -0.89561,2.23901 -0.89561,4.74671 0,2.32857 0.53737,4.92583 0.53736,2.50769 1.34341,5.01539 0.80604,2.50769 1.79121,4.92583 1.07472,2.41813 2.05989,4.56759 3.13462,-1.43297 6.09012,-3.31374 3.04506,-1.97034 5.37363,-4.38847 2.32857,-2.5077 3.76154,-5.55275 1.43297,-3.13462 1.43297,-6.89617 z m -6.26924,62.51326 q -5.82143,-7.88132 -10.6577,-15.49397 -4.74671,-7.61265 -9.3143,-16.21046 -3.22418,1.79121 -6.17968,4.03023 -2.86593,2.23901 -5.10495,5.01539 -2.23901,2.77637 -3.58242,6.09011 -1.25385,3.31374 -1.25385,7.25441 0,3.67198 1.16429,6.98572 1.25385,3.31374 3.49286,5.82144 2.23902,2.41813 5.37363,3.8511 3.13462,1.43297 6.98573,1.43297 2.68681,0 5.19451,-0.71649 2.59725,-0.80604 5.01539,-2.05989 2.41813,-1.25385 4.65715,-2.77638 2.23901,-1.61209 4.20934,-3.22418 z"
         style="font-size:183.42px;stroke-width:0.119414"
         id="path30" />
    </g>
  </g>
</svg>
